<svg width="25" height="25" viewBox="0 0 25 25" fill="none" xmlns="http://www.w3.org/2000/svg">
<path d="M12.3663 24.2893C10.6667 24.2893 8.966 24.3115 7.26638 24.2851C3.07164 24.2209 0.261614 21.7941 0.0959316 17.7884C-0.0576817 14.0766 -0.0159897 10.348 0.144207 6.63511C0.286848 3.33515 3.04531 0.825153 6.49392 0.748263C10.3847 0.66084 14.281 0.657681 18.1718 0.749317C21.6654 0.831474 24.4886 3.55739 24.5709 6.91845C24.662 10.6355 24.6587 14.3589 24.5709 18.076C24.493 21.3917 21.8366 24.0081 18.3924 24.204C16.3899 24.3178 14.3743 24.2251 12.3652 24.2251C12.3663 24.2462 12.3663 24.2672 12.3663 24.2893ZM22.4368 12.4746C22.4291 12.4746 22.4203 12.4746 22.4126 12.4746C22.4126 10.685 22.4741 8.89232 22.3973 7.10593C22.2952 4.74235 20.6099 3.13397 18.1576 2.92331C18.0851 2.91699 18.0116 2.90435 17.9392 2.90435C14.2294 2.90435 10.5153 2.81798 6.80993 2.93384C3.96589 3.02232 2.34527 4.78764 2.331 7.51461C2.31235 10.8135 2.30577 14.1124 2.34307 17.4113C2.35075 18.0823 2.48461 18.7817 2.71942 19.4137C3.35911 21.1347 5.00826 22.0901 7.25321 22.0985C10.6349 22.1111 14.0166 22.1143 17.3983 22.0985C20.521 22.0837 22.4159 20.2552 22.4346 17.2649C22.4456 15.6681 22.4368 14.0714 22.4368 12.4746Z" fill="#131313"/>
<path d="M6.00204 12.423C6.01959 9.0566 8.88777 6.32011 12.3693 6.3496C15.8552 6.37804 18.6916 9.14402 18.6729 12.4946C18.6543 15.8431 15.7784 18.5522 12.2684 18.5279C8.78902 18.5048 5.98448 15.7725 6.00204 12.423ZM16.3896 12.4409C16.3907 10.3048 14.5846 8.55101 12.3671 8.53521C10.1419 8.51941 8.27112 10.3027 8.27003 12.4377C8.26893 14.5622 10.0936 16.3202 12.309 16.3297C14.5693 16.3402 16.3885 14.6065 16.3896 12.4409Z" fill="#131313"/>
<path d="M20.3536 6.23234C20.3416 6.99364 19.7107 7.58646 18.9152 7.5812C18.1307 7.57593 17.4866 6.95994 17.4844 6.21234C17.4822 5.44683 18.157 4.8182 18.9635 4.83505C19.7513 4.85295 20.3657 5.46999 20.3536 6.23234Z" fill="#131313"/>
</svg>
