<svg width="13" height="23" viewBox="0 0 13 23" fill="none" xmlns="http://www.w3.org/2000/svg">
<path d="M12.9829 4.03136C11.9924 4.03136 11.0956 4.02663 10.2001 4.03254C8.94978 4.04082 8.55676 4.40387 8.5528 5.5344C8.55149 6.20018 8.5528 6.86478 8.5528 7.60151C10.0497 7.60151 11.4899 7.60151 13 7.60151C12.8272 8.84321 12.6808 10.0104 12.4804 11.1693C12.4593 11.2947 12.1216 11.4579 11.9264 11.4638C10.8331 11.4921 9.73714 11.478 8.56995 11.478C8.56995 15.3106 8.56995 19.1008 8.56995 22.9831C7.95536 22.9831 7.41331 22.9831 6.86994 22.9831C5.75023 22.9843 4.62788 22.9618 3.50949 22.9985C2.916 23.0174 2.71553 22.8637 2.71949 22.3055C2.7485 18.9376 2.73531 15.5696 2.73663 12.2005C2.73663 11.9888 2.73663 11.7771 2.73663 11.5075C1.79497 11.5075 0.924521 11.5075 0 11.5075C0 10.2043 0 8.95791 0 7.63817C0.87836 7.63817 1.76595 7.63817 2.734 7.63817C2.734 6.76662 2.7274 5.96603 2.73663 5.16662C2.74323 4.63565 2.71158 4.0964 2.80126 3.57489C3.14152 1.59528 4.90616 0.199855 7.22076 0.10052C8.95374 0.0272012 10.6907 0.0106482 12.425 5.16374e-06C12.6096 -0.0011774 12.9525 0.201039 12.9565 0.315747C12.9974 1.53142 12.9829 2.74828 12.9829 4.03136Z" fill="#131313"/>
</svg>
