<svg width="27" height="27" viewBox="0 0 27 27" fill="none" xmlns="http://www.w3.org/2000/svg">
<path fill-rule="evenodd" clip-rule="evenodd" d="M13.0752 0.0680528C12.6003 0.287883 12.4581 0.609769 12.4581 1.46402V2.09512L11.7598 2.21134C8.00877 2.83568 4.82096 5.57921 3.6302 9.20804C3.20699 10.4977 3.15846 10.896 3.1228 13.3711L3.09039 15.6213L2.82113 15.6639C2.67302 15.6873 2.31217 15.8222 2.01927 15.9637C-0.205837 17.0383 -0.693421 20.0066 1.06619 21.7662C1.56833 22.2684 2.29606 22.6616 2.93728 22.7771C3.16697 22.8184 4.348 22.8469 5.86044 22.8475L8.39813 22.8484L8.57476 23.4159C9.33114 25.8462 11.9176 27.394 14.4174 26.9122C16.3466 26.5403 17.8983 25.1682 18.4454 23.3505L18.5967 22.8477L21.1344 22.8471C22.6486 22.8468 23.8276 22.8185 24.0576 22.7771C24.7017 22.661 25.4444 22.2601 25.9372 21.7625C27.3576 20.328 27.3538 18.0763 25.9287 16.6511C25.4545 16.1768 24.6866 15.745 24.1733 15.6638L23.9035 15.6211L23.8752 13.4035C23.8502 11.4443 23.8303 11.1043 23.704 10.4866C23.4322 9.15691 22.8641 7.77394 22.1587 6.72429C20.5411 4.31766 18.1497 2.74357 15.3377 2.23485L14.5472 2.09181L14.5257 1.36521C14.5027 0.583524 14.4475 0.43788 14.0667 0.153543C13.8514 -0.00717275 13.3341 -0.0518016 13.0752 0.0680528ZM15.2513 4.32551C16.8862 4.69827 18.1492 5.39907 19.3499 6.59989C20.5455 7.79551 21.2261 9.01816 21.6315 10.6987C21.7516 11.1963 21.7687 11.5344 21.8047 14.1208C21.8434 16.8987 21.849 16.9966 21.9806 17.174C22.2546 17.5435 22.4964 17.6496 23.0647 17.6496C23.7847 17.6496 24.0554 17.7447 24.4453 18.1346C24.9043 18.5936 25.0312 19.0792 24.8513 19.6883C24.7458 20.0452 24.2077 20.5833 23.8509 20.6887C23.4631 20.8033 3.53178 20.8033 3.14398 20.6887C2.78716 20.5833 2.24903 20.0452 2.14361 19.6883C1.96367 19.0792 2.09053 18.5936 2.5496 18.1346C2.93949 17.7447 3.21017 17.6496 3.93011 17.6496C4.49851 17.6496 4.74022 17.5435 5.01428 17.174C5.14582 16.9966 5.15148 16.8987 5.19013 14.1208C5.22618 11.5344 5.24326 11.1963 5.36331 10.6987C5.76839 9.01959 6.44754 7.79895 7.64493 6.59768C8.82836 5.41044 10.1301 4.69041 11.7363 4.33474C12.5225 4.16064 12.6952 4.14693 13.7573 4.17487C14.3735 4.19111 14.89 4.24314 15.2513 4.32551ZM16.4206 22.8811C16.4206 23.0268 16.0172 23.6531 15.7284 23.9559C14.5078 25.2357 12.4871 25.2357 11.2665 23.9559C10.9777 23.6531 10.5743 23.0268 10.5743 22.8811C10.5743 22.8621 11.8897 22.8465 13.4974 22.8465C15.1052 22.8465 16.4206 22.8621 16.4206 22.8811Z" fill="white"/>
</svg>
