<svg width="16" height="16" viewBox="0 0 16 16" fill="none" xmlns="http://www.w3.org/2000/svg">
<path d="M8.03075 15.91C6.92701 15.91 5.82255 15.9248 4.71881 15.9072C1.99473 15.8641 0.169893 14.2374 0.0622983 11.5522C-0.0374587 9.06408 -0.0103838 6.56463 0.0936485 4.07578C0.18628 1.8637 1.97763 0.181163 4.21718 0.12962C6.74388 0.0710175 9.27415 0.0689 11.8008 0.130327C14.0696 0.1854 15.903 2.01268 15.9564 4.26571C16.0156 6.75739 16.0134 9.2533 15.9564 11.745C15.9059 13.9677 14.1808 15.7215 11.9441 15.8528C10.6437 15.9291 9.33471 15.8669 8.03003 15.8669C8.03074 15.8811 8.03075 15.8952 8.03075 15.91ZM14.5705 7.99016C14.5655 7.99016 14.5598 7.99016 14.5549 7.99016C14.5549 6.79057 14.5948 5.58886 14.5449 4.39139C14.4786 2.80699 13.3841 1.72884 11.7916 1.58763C11.7446 1.58339 11.6968 1.57492 11.6498 1.57492C9.24066 1.57492 6.82867 1.51702 4.42239 1.59469C2.57546 1.654 1.52303 2.83735 1.51376 4.66534C1.50165 6.87671 1.49737 9.08808 1.5216 11.2995C1.52659 11.7492 1.61352 12.218 1.766 12.6417C2.18142 13.7954 3.25238 14.4358 4.71026 14.4414C6.90634 14.4499 9.10242 14.452 11.2985 14.4414C13.3264 14.4315 14.557 13.2058 14.5691 11.2013C14.5762 10.1309 14.5705 9.06055 14.5705 7.99016Z" fill="white"/>
<path d="M3.89751 7.95611C3.90891 5.69952 5.77152 3.86515 8.03244 3.88492C10.2962 3.90399 12.1382 5.75812 12.126 8.00412C12.1139 10.2487 10.2463 12.0647 7.96689 12.0485C5.70739 12.0329 3.88611 10.2014 3.89751 7.95611ZM10.6432 7.96812C10.6439 6.53621 9.47108 5.36061 8.03102 5.35001C6.58596 5.33942 5.37107 6.5348 5.37036 7.966C5.36964 9.39014 6.55461 10.5686 7.99325 10.5749C9.4611 10.582 10.6425 9.41979 10.6432 7.96812Z" fill="white"/>
<path d="M13.2176 3.80602C13.2097 4.31634 12.8 4.71373 12.2834 4.7102C11.7739 4.70667 11.3557 4.29375 11.3543 3.79261C11.3528 3.27946 11.791 2.85807 12.3148 2.86936C12.8264 2.88136 13.2254 3.29499 13.2176 3.80602Z" fill="white"/>
</svg>
