<svg width="85" height="24" viewBox="0 0 85 24" fill="none" xmlns="http://www.w3.org/2000/svg">
<path d="M13.3438 0.45406H17.8906V23.1571H14.4311L4.54679 9.27579V23.1571H0V0.45406H3.45951L13.3438 14.3029V0.45406Z" fill="#131313"/>
<path d="M41.5751 20.2057C39.2468 22.476 36.4133 23.6111 33.0746 23.6111C29.7359 23.6111 26.9024 22.476 24.5741 20.2057C22.2678 17.9137 21.1146 15.1137 21.1146 11.8056C21.1146 8.49741 22.2678 5.70818 24.5741 3.43788C26.9024 1.14596 29.7359 0 33.0746 0C36.4133 0 39.2468 1.14596 41.5751 3.43788C43.9035 5.70818 45.0676 8.49741 45.0676 11.8056C45.0676 15.1137 43.9035 17.9137 41.5751 20.2057ZM27.77 17.157C29.1978 18.5408 30.966 19.2327 33.0746 19.2327C35.1833 19.2327 36.9515 18.5408 38.3792 17.157C39.807 15.7516 40.5208 13.9677 40.5208 11.8056C40.5208 9.64337 39.807 7.85956 38.3792 6.45414C36.9515 5.04871 35.1833 4.346 33.0746 4.346C30.966 4.346 29.1978 5.04871 27.77 6.45414C26.3423 7.85956 25.6284 9.64337 25.6284 11.8056C25.6284 13.9677 26.3423 15.7516 27.77 17.157Z" fill="#131313"/>
<path d="M62.1989 0.45406V4.7352H55.9718V23.1571H51.425V4.7352H45.2308V0.45406H62.1989Z" fill="#131313"/>
<path d="M73.8966 0.45406C77.0596 0.45406 79.6954 1.54597 81.8041 3.72978C83.9347 5.91359 85 8.60551 85 11.8056C85 15.0056 83.9347 17.6975 81.8041 19.8813C79.6954 22.0651 77.0596 23.1571 73.8966 23.1571H64.7371V0.45406H73.8966ZM73.8966 18.8759C75.8954 18.8759 77.5209 18.2273 78.7729 16.9299C80.0249 15.611 80.6509 13.9029 80.6509 11.8056C80.6509 9.70823 80.0249 8.01091 78.7729 6.7136C77.5209 5.39466 75.8954 4.7352 73.8966 4.7352H69.2839V18.8759H73.8966Z" fill="#131313"/>
<path d="M42.4999 8.02783C42.4999 10.375 40.8085 12.2778 38.7221 12.2778C36.6357 12.2778 34.9443 10.375 34.9443 8.02783C34.9443 5.68062 36.6357 3.77783 38.7221 3.77783C40.8085 3.77783 42.4999 5.68062 42.4999 8.02783Z" fill="#131313"/>
</svg>
