<svg width="45" height="28" viewBox="0 0 45 28" fill="none" xmlns="http://www.w3.org/2000/svg">
<path d="M22.6636 3.84619C28.3501 -1.11121 36.5881 -0.455086 41.3997 4.72102C46.1384 9.75133 46.2113 17.5519 41.5455 22.7281C36.5881 28.2687 27.9126 28.6332 22.6636 23.8216C17.2688 28.7061 8.88497 28.1958 3.92756 22.8739C-0.738225 17.7707 -0.738225 9.97003 3.92756 4.86683C8.81206 -0.527989 17.1959 -1.03831 22.6636 3.84619ZM38.6294 13.3965C38.7023 12.8862 38.8481 12.4487 38.921 11.9384C38.3378 11.8655 38.0461 12.3029 37.6816 12.6674C37.6816 12.3758 37.6816 12.23 37.6816 12.0113C37.39 12.0113 37.0984 12.0113 36.8068 12.0113C36.4423 12.0113 36.2965 12.0842 36.2965 12.4487C36.2236 13.1778 36.1507 13.9068 36.0049 14.6358C35.8591 15.5836 35.7133 16.4584 35.5674 17.4061C36.0778 17.4061 36.5152 17.4061 36.9526 17.4061C37.0255 16.6771 37.1713 16.021 37.2442 15.3649C37.4629 14.49 37.4629 13.5423 38.6294 13.3965C38.3378 14.1255 38.192 14.9274 38.3378 15.7294C38.4836 16.9687 39.4313 17.7706 40.5248 17.479C40.8165 17.4061 41.1081 17.1874 41.3268 17.1145C41.7642 17.6248 42.2745 17.2603 42.7119 17.4061C43.0765 15.0732 43.441 12.8862 43.8055 10.6262C43.2952 10.6262 42.8577 10.6262 42.3474 10.6262C42.2016 11.2823 42.1287 11.8655 41.9829 12.5216C41.91 12.4487 41.8371 12.3758 41.7642 12.3758C40.9623 11.7197 40.0874 11.7197 39.3584 12.4487C39.0668 12.6674 38.8481 13.032 38.6294 13.3965ZM2.83402 10.6262C2.46951 12.8862 2.03209 15.1461 1.66757 17.4061C2.17789 17.4061 2.54241 17.4061 2.97983 17.4061C3.27144 15.8023 3.56305 14.1984 3.78176 12.6674C3.85466 12.6674 3.85466 12.6674 3.92756 12.6674C3.92756 14.2713 3.92756 15.8023 3.92756 17.4061C4.8753 17.5519 4.8753 17.5519 5.16691 16.75C5.67724 15.3649 6.18756 14.0526 6.62497 12.6674H6.69788C6.47917 14.2713 6.18756 15.8023 5.96885 17.4061C6.47917 17.4061 6.91659 17.4061 7.42691 17.4061C7.79142 15.1461 8.22884 12.8862 8.59335 10.6262C7.79142 10.6262 7.13529 10.6262 6.33336 10.6262C5.89594 11.9384 5.45853 13.1778 5.02111 14.49C4.94821 14.49 4.94821 14.49 4.8753 14.49C4.8753 13.2507 4.8753 11.9384 4.8753 10.6991C4.21918 10.6262 3.56305 10.6262 2.83402 10.6262ZM8.88497 13.1778C9.10367 13.1049 9.24948 13.1049 9.39529 13.032C9.90561 13.032 10.4159 12.9591 10.8533 12.9591C10.9992 12.9591 11.2179 13.2507 11.2179 13.4694C11.2908 13.8339 10.9992 13.761 10.7075 13.761C10.4159 13.761 10.1243 13.761 9.8327 13.8339C8.52045 13.9797 7.71852 15.0732 8.01013 16.3855C8.15594 17.1145 8.66626 17.5519 9.39529 17.479C9.8327 17.4061 10.343 17.2603 10.7804 17.1145C10.8533 17.479 10.9992 17.5519 11.9469 17.3332C12.0198 17.0416 12.0927 16.75 12.0927 16.4584C12.2385 15.3649 12.3843 14.2713 12.4572 13.1778C12.5301 12.3758 12.0927 11.7926 11.2179 11.7197C10.4888 11.6468 9.7598 11.7926 9.03077 11.8655C8.95787 11.8655 8.81206 12.0113 8.81206 12.0842C8.95787 12.4487 8.88497 12.8132 8.88497 13.1778ZM34.9842 17.479C35.13 16.5313 35.2758 15.6565 35.4216 14.8545C35.4945 14.2713 35.5674 13.761 35.5674 13.1778C35.5674 12.3758 35.13 11.8655 34.401 11.7926C33.672 11.7197 32.9429 11.8655 32.2139 11.9384C32.141 11.9384 31.9952 12.0113 31.9952 12.0842C31.9223 12.4487 31.9223 12.8132 31.8494 13.1778C32.141 13.1049 32.2868 13.032 32.5055 13.032C32.9429 13.032 33.4533 12.9591 33.8907 13.032C34.0365 13.032 34.1094 13.3965 34.2552 13.5423C34.1094 13.6152 33.9636 13.761 33.8178 13.8339C33.5262 13.9068 33.2346 13.8339 32.9429 13.9068C31.6307 14.0526 30.9017 15.0732 31.1204 16.3126C31.2662 17.1145 31.7765 17.5519 32.5784 17.479C33.0158 17.4061 33.4533 17.2603 33.8907 17.1145C34.0365 17.7706 34.5468 17.3332 34.9842 17.479ZM23.3927 15.0003C23.4656 14.5629 23.5385 14.1984 23.5385 13.8339C23.6114 12.5945 22.7365 11.7197 21.4972 11.7197C20.841 11.7197 20.2578 12.0113 19.8204 12.5945C19.0185 13.6152 18.8727 14.7816 19.1643 16.021C19.3101 16.75 19.8204 17.1874 20.4765 17.3332C21.2056 17.4061 21.9346 17.4061 22.6636 17.4061C22.8094 17.4061 22.9552 17.2603 22.9552 17.1874C23.0281 16.8229 23.101 16.4584 23.1739 16.0939C21.2056 16.6771 20.2578 16.3126 20.4765 15.1461C21.4972 15.0003 22.4449 15.0003 23.3927 15.0003ZM31.7036 10.8449C30.0997 9.97003 28.3501 10.4804 27.4752 11.9384C26.892 12.9591 26.6733 13.9797 26.892 15.1461C27.1836 16.9687 28.423 17.7707 30.1726 17.4061C30.3184 17.4061 30.5371 17.2603 30.61 17.1145C30.7559 16.6771 30.8288 16.1668 30.9746 15.5836C30.7559 15.6565 30.61 15.7294 30.4642 15.8023C29.2978 16.1668 28.423 15.6565 28.423 14.3442C28.3501 12.6674 29.5165 11.1365 31.4849 12.0842C31.4849 12.0842 31.4849 12.0842 31.5578 12.0842C31.5578 11.7197 31.6307 11.2823 31.7036 10.8449ZM12.4572 17.479C13.1862 17.479 13.9153 17.5519 14.5714 17.479C15.5191 17.4061 16.0295 16.8958 16.1753 16.1668C16.3211 15.1461 16.1024 14.5629 15.1546 14.1255C15.0817 14.0526 14.9359 14.0526 14.863 13.9797C14.7172 13.761 14.5714 13.5423 14.4256 13.3965C14.6443 13.2507 14.863 13.1049 15.0817 13.032C15.4462 12.9591 15.8107 13.032 16.2482 13.032C16.3211 12.6674 16.3211 12.3029 16.394 11.7926C15.8107 11.7926 15.3004 11.7926 14.7901 11.7926C13.8424 11.8655 13.2591 12.3029 13.0404 13.1049C12.7488 14.1255 13.1133 14.7087 14.2069 15.2919C14.4985 15.4378 14.7901 15.5107 14.7172 15.9481C14.6443 16.3126 14.2798 16.3855 13.9882 16.3855C13.5508 16.3855 13.0404 16.3126 12.603 16.3126C12.5301 16.5313 12.5301 16.8958 12.4572 17.479ZM18.8727 13.1778C18.9456 12.7403 18.9456 12.3029 19.0185 11.9384C18.7998 11.9384 18.5811 11.8655 18.3624 11.8655C18.3624 11.5739 18.4353 11.3552 18.4353 11.0636C18.0707 11.0636 17.7791 11.0636 17.4146 11.0636C17.123 11.0636 16.9772 11.1365 16.9772 11.4281C16.9043 12.1571 16.7585 12.8862 16.6127 13.6152C16.4669 14.4171 16.3211 15.2919 16.2482 16.0939C16.1753 16.8958 16.5398 17.4061 17.2688 17.479C18.2165 17.5519 18.5082 17.3332 18.5811 16.3855C18.5811 16.3126 18.5811 16.2397 18.5811 16.1668C17.852 16.0939 17.5604 15.8752 17.6333 15.4378C17.7791 14.7087 17.9249 13.9797 18.0707 13.1778C18.4353 13.2507 18.654 13.1778 18.8727 13.1778ZM24.4133 12.0113C24.1217 13.8339 23.903 15.5836 23.6114 17.4061C24.0488 17.4061 24.4862 17.4061 24.9965 17.4061C25.0694 17.1874 25.0694 16.9687 25.1423 16.8229C25.2881 16.021 25.4339 15.1461 25.6526 14.3442C25.7255 13.9068 25.8714 13.4694 26.4546 13.4694C26.5275 13.4694 26.6004 13.3236 26.6004 13.2507C26.7462 12.8132 26.892 12.3758 27.0378 11.8655C26.4546 11.7197 26.163 12.23 25.7255 12.5945C25.7255 12.3758 25.7255 12.1571 25.7255 12.0113C25.2152 12.0113 24.7778 12.0113 24.4133 12.0113Z" fill="#F3F2EC"/>
<path d="M41.7649 14.2709C41.6191 14.7084 41.5462 15.2187 41.3275 15.6561C41.1817 16.0206 40.8172 16.2393 40.3798 16.0935C39.9424 16.0206 39.7966 15.5832 39.8695 15.2187C39.8695 14.7084 39.9424 14.198 40.1611 13.7606C40.3798 13.2503 40.8172 13.0316 41.1817 13.1045C41.692 13.3961 41.692 13.8335 41.7649 14.2709Z" fill="#F3F2EC"/>
<path d="M11.0723 14.8545C10.9994 15.5106 10.8536 15.948 10.3433 16.1667C10.0517 16.3126 9.68716 16.3126 9.54135 16.0209C9.39555 15.6564 9.46845 15.2919 9.83296 15.1461C10.1975 15.0003 10.6349 14.9274 11.0723 14.8545Z" fill="#F3F2EC"/>
<path d="M34.038 14.8545C33.9651 15.4377 33.8922 15.8751 33.4548 16.0938C33.0903 16.3126 32.6529 16.2396 32.5071 15.948C32.3613 15.5835 32.5071 15.1461 32.9445 15.0003C33.2361 14.9274 33.6006 14.9274 34.038 14.8545Z" fill="#F3F2EC"/>
<path d="M22.154 13.9784C21.6437 13.9784 21.1334 13.9784 20.623 13.9784C20.6959 13.3223 21.0605 12.9578 21.5708 13.0307C22.0811 13.1036 22.2269 13.3952 22.154 13.9784Z" fill="#F3F2EC"/>
</svg>
