<svg width="18" height="24" viewBox="0 0 18 24" fill="none" xmlns="http://www.w3.org/2000/svg">
<path fill-rule="evenodd" clip-rule="evenodd" d="M10.7953 0.0894789C10.5175 0.238481 9.41343 1.29661 8.86363 1.94077C7.90131 3.06828 7.08379 4.43997 6.70634 5.56057C6.44411 6.33903 6.34135 6.87279 6.30911 7.62418C6.25746 8.82601 6.4993 9.8139 7.14245 11.0289C7.63614 11.9615 7.7774 12.3891 7.78001 12.9591C7.78246 13.4984 7.63288 13.8877 7.30127 14.2053C6.89865 14.5909 6.42693 14.7162 5.83728 14.5942C4.57315 14.3328 3.95968 13.1892 3.85501 10.8992C3.81886 10.1079 3.80439 10.0185 3.68624 9.85487C3.54678 9.66168 3.19805 9.47703 2.96909 9.47515C2.8909 9.47451 2.65847 9.55719 2.45256 9.6589C0.251782 10.746 -0.627617 14.3494 0.476009 17.7578C1.3559 20.4752 3.49741 22.6218 6.21896 23.5144C10.245 24.8348 14.5003 23.403 16.8395 19.9408C17.6299 18.7709 17.998 17.4663 18 15.8276C18.002 14.1957 17.651 13.0332 16.7746 11.7687C16.3521 11.1592 15.7427 10.5264 14.6241 9.53531C12.641 7.77844 11.938 6.59758 11.7249 4.66538C11.6262 3.77008 11.7302 2.38279 11.972 1.37125C12.1269 0.723501 12.0492 0.40909 11.6652 0.128619C11.4539 -0.0256906 11.0445 -0.0441349 10.7953 0.0894789ZM10.0667 5.40888C10.3083 6.88936 10.9761 8.23483 12.0987 9.50266C12.3346 9.76913 12.9846 10.3923 13.5431 10.8874C14.9824 12.1635 15.559 12.8636 15.9116 13.7633C16.5036 15.2738 16.3594 17.3449 15.5669 18.713C14.5679 20.4378 12.6682 21.7572 10.5973 22.1648C9.94208 22.2938 8.45742 22.2933 7.79975 22.1639C6.26463 21.862 5.00986 21.2053 3.95359 20.1511C3.31587 19.5146 2.92075 18.9796 2.56038 18.2644C1.9263 17.006 1.62748 15.4127 1.77461 14.0741C1.8423 13.4579 2.00308 12.777 2.14422 12.5084L2.23149 12.3425L2.30348 12.691C2.48611 13.5746 2.81027 14.3228 3.27433 14.9314C4.28563 16.2579 6.25403 16.7379 7.71014 16.0131C8.96416 15.3888 9.69333 13.9724 9.50526 12.5263C9.41495 11.8318 9.21813 11.2728 8.74194 10.3587C8.16539 9.25178 8.06062 8.86569 8.0654 7.86546C8.0685 7.20913 8.09069 7.00866 8.20759 6.57865C8.45747 5.65917 8.99771 4.59031 9.64385 3.73694L9.90772 3.38843L9.94632 4.14824C9.96758 4.56613 10.0217 5.13345 10.0667 5.40888Z" fill="#F24342"/>
</svg>
