<svg width="24" height="31" viewBox="0 0 24 31" fill="none" xmlns="http://www.w3.org/2000/svg">
<path d="M1.00127 28.4501L1.90127 10.4501C1.92788 9.91785 2.36715 9.5 2.90003 9.5H20.9975C21.5304 9.5 21.9697 9.91786 21.9963 10.4501L22.8963 28.4501C22.9248 29.0212 22.4694 29.5 21.8975 29.5H2.00003C1.42813 29.5 0.972714 29.0212 1.00127 28.4501Z" fill="#F24342"/>
<path fill-rule="evenodd" clip-rule="evenodd" d="M0.902547 10.4001C0.955768 9.33571 1.8343 8.5 2.90005 8.5H20.9976C22.0633 8.5 22.9418 9.33571 22.9951 10.4001L23.8951 28.4001C23.9522 29.5425 23.0413 30.5 21.8976 30.5H2.00005C0.856257 30.5 -0.0545712 29.5425 0.00254711 28.4001L0.902547 10.4001ZM20.9976 10.5H2.90005L2.00005 28.5H21.8976L20.9976 10.5Z" fill="#fff"/>
<path fill-rule="evenodd" clip-rule="evenodd" d="M11.9492 2C10.2924 2 8.94922 3.34315 8.94922 5V9H6.94922V5C6.94922 2.23858 9.1878 0 11.9492 0C14.7106 0 16.9492 2.23858 16.9492 5V9H14.9492V5C14.9492 3.34315 13.6061 2 11.9492 2Z" fill="#fff"/>
</svg>
