<svg width="21" height="21" viewBox="0 0 21 21" fill="none" xmlns="http://www.w3.org/2000/svg">
<path fill-rule="evenodd" clip-rule="evenodd" d="M2.12168 0.31989C1.62933 0.485959 1.07822 0.978599 0.8704 1.43853C0.703288 1.80832 0.674529 2.2575 0.316243 10.0901C-0.0366863 17.8064 -0.0530845 18.3778 0.0682944 18.7485C0.238785 19.2691 0.706914 19.7792 1.22514 20.0088L1.64177 20.1935L10.5045 20.1943L19.3671 20.1951L19.7951 19.9921C20.3299 19.7384 20.7627 19.2648 20.9318 18.7485C21.0531 18.3778 21.0367 17.8059 20.6834 10.0893C20.2566 0.765383 20.3263 1.36087 19.5894 0.743418C18.894 0.160645 19.3955 0.19069 10.4648 0.197593C3.6252 0.202849 2.41594 0.220577 2.12168 0.31989ZM18.4053 2.17215C18.4457 2.26919 18.636 5.92814 18.8282 10.3031C19.1671 18.0171 19.1731 18.2608 19.0256 18.3634C18.7995 18.5208 2.20029 18.5206 1.97418 18.3633C1.82635 18.2604 1.8322 18.0219 2.17154 10.303C2.36386 5.92806 2.55429 2.26927 2.59475 2.17215L2.66826 1.99565H10.5H18.3318L18.4053 2.17215ZM6.9372 3.76154C6.50492 3.99296 6.46232 4.18986 6.46232 5.9574C6.46232 7.82856 6.56079 8.39722 7.00782 9.10731C7.8995 10.5236 9.42353 11.2364 11.0912 11.0171C12.2793 10.8609 13.428 10.1189 14.0285 9.1197C14.4698 8.38545 14.5378 7.96867 14.5378 5.99732C14.5378 4.06144 14.5235 3.99704 14.0424 3.76021C13.7098 3.59649 13.4542 3.61383 13.1285 3.82226C12.7047 4.09352 12.6524 4.34502 12.6471 6.13617C12.6419 7.91132 12.6128 8.0417 12.0999 8.58211C11.2884 9.43725 9.9622 9.51413 9.08197 8.75712C8.43907 8.20408 8.40405 8.07159 8.35757 6.01733L8.31637 4.19472L8.0615 3.95232C7.75406 3.65988 7.27802 3.57908 6.9372 3.76154Z" fill="#131313"/>
</svg>
