<svg width="23" height="19" viewBox="0 0 23 19" fill="none" xmlns="http://www.w3.org/2000/svg">
<path d="M12.2675 14.9002C11.5912 15.5415 10.9314 16.1671 10.2706 16.7926C10.0245 17.0261 9.77785 17.2591 9.52974 17.4906C9.29613 17.7088 9.0205 17.825 8.65984 17.8211C8.68185 17.4743 8.70086 17.1344 8.72487 16.7951C8.82041 15.4523 8.91295 14.1096 9.021 12.7684C9.03201 12.6315 9.10854 12.466 9.21059 12.3743C12.3405 9.57758 15.4775 6.78919 18.6124 3.99834C18.7174 3.90475 18.8245 3.81117 18.914 3.70478C18.956 3.65503 18.9951 3.55307 18.9711 3.51169C18.9375 3.45406 18.83 3.38609 18.777 3.40136C18.5409 3.46785 18.2917 3.52795 18.0861 3.65207C17.0352 4.28649 15.9962 4.94061 14.9532 5.58734C12.0629 7.37928 9.17207 9.17023 6.28525 10.9671C6.12068 11.0695 5.98311 11.0868 5.79903 11.0292C4.18829 10.5262 2.57406 10.0352 0.96332 9.53374C0.750723 9.46773 0.536625 9.38498 0.347538 9.27071C-0.0811576 9.01113 -0.121676 8.6161 0.273004 8.30677C0.528621 8.1063 0.830259 7.94474 1.1359 7.82603C2.80816 7.17684 4.48793 6.54586 6.1657 5.90948C11.214 3.99391 16.2628 2.07933 21.3111 0.164743C21.4042 0.129278 21.4977 0.093814 21.5933 0.0652455C22.3836 -0.170691 23.0094 0.249463 22.9999 1.06367C22.9944 1.5252 22.8903 1.98968 22.7928 2.4453C21.7043 7.52261 20.6098 12.5989 19.5098 17.6738C19.4478 17.959 19.3532 18.2466 19.2167 18.5042C18.9936 18.9264 18.6084 19.0865 18.1432 18.9554C17.8846 18.8825 17.6219 18.7702 17.4053 18.6156C15.7606 17.4383 14.1273 16.2459 12.4901 15.0583C12.4236 15.01 12.3555 14.9627 12.2675 14.9002Z" fill="#131313"/>
</svg>
