<svg width="17" height="17" viewBox="0 0 17 17" fill="none" xmlns="http://www.w3.org/2000/svg">
<path fill-rule="evenodd" clip-rule="evenodd" d="M6.38672 0.0345608C5.27121 0.135537 4.71723 0.531397 4.49586 1.38562C4.42656 1.65312 4.35629 2.37003 4.35582 2.8148L4.35547 3.11651L2.36609 3.1273C0.426484 3.13784 0.374062 3.14015 0.268906 3.21866C0.0639453 3.37175 0 3.49655 0 3.74358C0 3.99054 0.0639063 4.11534 0.268828 4.26851C0.367188 4.34202 0.44082 4.35011 1.11391 4.36116L1.85125 4.37327L1.86539 9.16585C1.87809 13.4562 1.88648 13.9961 1.94551 14.318C2.10469 15.1858 2.39855 15.6285 3.00715 15.9175C3.63527 16.2158 4.03699 16.2413 8.10547 16.2413C12.184 16.2413 12.5747 16.2162 13.2114 15.9139C13.7371 15.6642 14.0829 15.1889 14.2211 14.5262C14.3359 13.9757 14.3532 13.2335 14.3543 8.81433L14.3555 4.37331L15.0949 4.3612C15.7702 4.35011 15.8438 4.34206 15.9421 4.26851C16.147 4.11534 16.2109 3.99054 16.2109 3.74358C16.2109 3.49655 16.147 3.37175 15.942 3.21866C15.8369 3.14015 15.7844 3.13784 13.8509 3.12733L11.8676 3.11651L11.8441 2.46187C11.808 1.45702 11.6832 0.989483 11.3499 0.610889C11.0582 0.279444 10.6059 0.106319 9.84375 0.0342873C9.35871 -0.011572 6.89398 -0.0113767 6.38672 0.0345608ZM9.75047 1.28038C10.2473 1.33269 10.3991 1.3823 10.4677 1.51491C10.5421 1.65894 10.6047 2.20683 10.6052 2.71819L10.6055 3.11858H8.10547H5.60547L5.60613 2.79632C5.60711 2.33933 5.67172 1.78261 5.74512 1.59917C5.82094 1.40968 5.99437 1.33011 6.43113 1.28433C6.8423 1.24124 9.35031 1.23827 9.75047 1.28038ZM13.0936 9.14397C13.077 14.1119 13.0746 14.1817 12.9098 14.5542C12.8203 14.7566 12.648 14.8469 12.2049 14.9237C11.7838 14.9966 4.42719 14.9966 4.00605 14.9237C3.56297 14.8469 3.39066 14.7566 3.30109 14.5542C3.13633 14.1817 3.13394 14.1119 3.11738 9.14397L3.10148 4.36858H8.10547H13.1095L13.0936 9.14397ZM5.34961 6.29636C5.19137 6.36815 5.02805 6.56757 4.99996 6.72323C4.98746 6.79245 4.98238 8.17054 4.98863 9.78565C4.99984 12.6817 5.00109 12.7237 5.08055 12.8301C5.23359 13.0351 5.35844 13.0991 5.60547 13.0991C5.8525 13.0991 5.97734 13.0351 6.13039 12.8301C6.21012 12.7233 6.21094 12.6917 6.21094 9.68108C6.21094 6.6705 6.21012 6.63886 6.13039 6.53206C6.08609 6.47272 6.00391 6.38987 5.94777 6.34796C5.81848 6.25144 5.50773 6.22464 5.34961 6.29636ZM7.84961 6.29636C7.69137 6.36815 7.52805 6.56757 7.49996 6.72323C7.48746 6.79245 7.48238 8.17054 7.48863 9.78565C7.49984 12.6817 7.50109 12.7237 7.58055 12.8301C7.73359 13.0351 7.85844 13.0991 8.10547 13.0991C8.3525 13.0991 8.47734 13.0351 8.63039 12.8301C8.71012 12.7233 8.71094 12.6917 8.71094 9.68108C8.71094 6.6705 8.71012 6.63886 8.63039 6.53206C8.58609 6.47272 8.50391 6.38987 8.44777 6.34796C8.31848 6.25144 8.00773 6.22464 7.84961 6.29636ZM10.3496 6.29636C10.1914 6.36815 10.028 6.56757 9.99996 6.72323C9.98746 6.79245 9.98238 8.17054 9.98863 9.78565C9.99984 12.6817 10.0011 12.7237 10.0805 12.8301C10.2336 13.0351 10.3584 13.0991 10.6055 13.0991C10.8525 13.0991 10.9773 13.0351 11.1304 12.8301C11.2101 12.7233 11.2109 12.6917 11.2109 9.68108C11.2109 6.6705 11.2101 6.63886 11.1304 6.53206C11.0861 6.47272 11.0039 6.38987 10.9478 6.34796C10.8185 6.25144 10.5077 6.22464 10.3496 6.29636Z" fill="#131313" fill-opacity="0.5"/>
</svg>
