<svg width="22" height="24" viewBox="0 0 22 24" fill="none" xmlns="http://www.w3.org/2000/svg">
<path d="M10.9572 0C12.7437 0.0416506 14.5175 0.157548 16.2405 0.665956C16.7593 0.818977 17.2696 1.00867 17.7698 1.21556C19.54 1.94671 20.6686 3.26776 21.2793 5.06416C21.7203 6.36076 21.9213 7.69766 21.9761 9.059C22.0494 10.8889 21.9639 12.7125 21.5831 14.5057C21.1938 16.3388 20.2852 17.8531 18.6585 18.8713C17.9808 19.2955 17.2383 19.5558 16.4714 19.7677C14.1621 20.4052 11.8097 20.5496 9.43156 20.3943C9.23372 20.3812 9.11511 20.4436 8.99061 20.5862C8.40569 21.2572 7.81398 21.9222 7.21503 22.5805C7.05386 22.7575 6.87458 22.9282 6.67448 23.0568C6.14389 23.3972 5.56168 23.1668 5.3978 22.5578C5.34755 22.3713 5.33306 22.1708 5.33125 21.9766C5.32355 21.2753 5.32582 20.5736 5.3308 19.8718C5.3317 19.7492 5.30137 19.6831 5.17506 19.645C2.54926 18.8537 1.04713 17.0328 0.400637 14.4278C0.172465 13.5093 0.0579255 12.5748 0.0262348 11.6314C-0.0317138 9.90287 -0.0172266 8.17709 0.316883 6.47032C0.463566 5.72061 0.691738 4.99761 1.00502 4.29997C1.75654 2.6267 3.07306 1.59902 4.75629 0.976977C6.0384 0.502976 7.36579 0.241754 8.72215 0.124952C9.46507 0.0606649 10.2116 0.0402924 10.9572 0ZM5.97321 20.2268C5.96732 20.2268 5.96099 20.2268 5.9551 20.2268C5.9551 20.8606 5.94922 21.4944 5.96099 22.1278C5.9628 22.2332 6.02527 22.4071 6.09182 22.4247C6.19006 22.4506 6.33811 22.3894 6.42774 22.3184C6.57443 22.2029 6.69711 22.0553 6.8198 21.9123C7.6845 20.905 8.54513 19.894 9.41391 18.8903C9.47729 18.817 9.59726 18.7459 9.68735 18.75C11.8192 18.8537 13.919 18.6676 15.9847 18.1117C16.6901 17.922 17.3606 17.6662 17.9532 17.232C19.1194 16.3782 19.7346 15.1839 20.0063 13.8035C20.3236 12.1905 20.3938 10.5552 20.3096 8.91548C20.2544 7.83574 20.0774 6.77501 19.7369 5.74325C19.228 4.19946 18.2551 3.1161 16.7032 2.56332C15.8335 2.2532 14.9521 1.98927 14.0362 1.89012C13.0706 1.78599 12.099 1.71944 11.1279 1.68323C9.41481 1.61939 7.72842 1.80139 6.07598 2.28897C3.91468 2.92686 2.57643 4.32758 2.05036 6.51605C1.83803 7.39976 1.72531 8.29616 1.69814 9.20206C1.65378 10.6725 1.60398 12.1434 1.89779 13.5989C2.35369 15.8557 3.56065 17.4593 5.83513 18.1356C5.95918 18.1723 5.97547 18.2393 5.97502 18.3484C5.97095 18.9745 5.97321 19.6007 5.97321 20.2268Z" fill="#131313"/>
<path d="M4.83984 6.9847C4.85478 6.56775 4.99377 6.26216 5.2061 5.98916C5.52979 5.57356 5.92864 5.23991 6.38408 4.97959C6.83364 4.7229 7.2257 4.78311 7.54441 5.19961C8.02521 5.82664 8.49106 6.46679 8.92658 7.1255C9.28423 7.66696 9.18101 8.12783 8.6812 8.53211C8.55218 8.63624 8.4227 8.73991 8.29458 8.8454C8.0578 9.04007 7.97586 9.30491 8.07229 9.57745C8.6898 11.325 9.78042 12.6265 11.589 13.2305C12.0449 13.3826 12.3157 13.293 12.6167 12.9113C12.696 12.8108 12.7747 12.7094 12.8544 12.6089C13.1767 12.2023 13.6254 12.086 14.0777 12.3318C14.869 12.7615 15.5934 13.2907 16.2598 13.896C16.4839 14.0993 16.5446 14.3673 16.4766 14.6624C16.311 15.3854 15.2855 16.3624 14.5521 16.4706C14.381 16.496 14.1841 16.4815 14.0229 16.4213C10.6465 15.1568 7.89346 13.1363 6.1206 9.91609C5.65429 9.06904 5.23054 8.20706 4.90549 7.29754C4.86293 7.17937 4.85252 7.04944 4.83984 6.9847Z" fill="#131313"/>
<path d="M16.8869 10.0956C16.8869 10.2164 16.8896 10.3369 16.8864 10.4577C16.8815 10.6465 16.7814 10.7583 16.594 10.7633C16.3957 10.7683 16.321 10.6366 16.3051 10.4568C16.2662 10.0141 16.2549 9.56677 16.1811 9.12989C15.6926 6.2465 13.2226 4.77968 11.0201 4.75794C10.9748 4.75749 10.9295 4.75659 10.8842 4.75659C10.6932 4.75523 10.5592 4.68143 10.5474 4.47318C10.5374 4.29073 10.6674 4.17982 10.8974 4.18525C13.4045 4.24456 15.2462 5.35961 16.335 7.6436C16.7035 8.41595 16.876 9.23991 16.8869 10.0956Z" fill="#131313"/>
<path d="M14.7639 9.60032C14.7422 7.91664 13.4542 6.50822 11.7642 6.31943C11.6297 6.30449 11.4943 6.29363 11.3594 6.28231C11.1539 6.2651 11.0294 6.14785 11.0489 5.97536C11.0706 5.78431 11.1974 5.69467 11.3775 5.7078C12.5868 5.79608 13.6556 6.18905 14.452 7.15516C15.0881 7.92705 15.366 8.82073 15.3506 9.8131C15.347 10.0508 15.2497 10.173 15.0691 10.1698C14.8757 10.1667 14.7648 10.034 14.7639 9.80359C14.7635 9.73568 14.7639 9.66823 14.7639 9.60032Z" fill="#131313"/>
<path d="M13.8453 9.28739C13.8498 9.51511 13.7407 9.655 13.5728 9.66542C13.4052 9.67583 13.2857 9.55269 13.264 9.34896C13.2554 9.26657 13.2472 9.18417 13.2332 9.10268C13.0992 8.31585 12.6863 7.93692 11.8873 7.86267C11.8067 7.85498 11.6935 7.85769 11.655 7.8088C11.5844 7.71916 11.5133 7.58968 11.5246 7.48555C11.5418 7.32665 11.6835 7.27006 11.8465 7.27051C12.8679 7.27323 13.6533 7.95593 13.805 8.97864C13.8213 9.09046 13.8344 9.20273 13.8453 9.28739Z" fill="#131313"/>
</svg>
