<svg width="22" height="24" viewBox="0 0 22 24" fill="none" xmlns="http://www.w3.org/2000/svg">
<path d="M10.9572 0C12.7437 0.0416506 14.5175 0.157548 16.2405 0.665956C16.7593 0.818977 17.2696 1.00867 17.7698 1.21556C19.54 1.94671 20.6686 3.26776 21.2793 5.06416C21.7203 6.36076 21.9213 7.69766 21.9761 9.059C22.0494 10.8889 21.9639 12.7125 21.5831 14.5057C21.1938 16.3388 20.2852 17.8531 18.6585 18.8713C17.9808 19.2955 17.2383 19.5558 16.4714 19.7677C14.1621 20.4052 11.8097 20.5496 9.43156 20.3943C9.23372 20.3812 9.11511 20.4436 8.99061 20.5862C8.40569 21.2572 7.81398 21.9222 7.21503 22.5805C7.05386 22.7575 6.87458 22.9282 6.67448 23.0568C6.14389 23.3972 5.56168 23.1668 5.3978 22.5578C5.34755 22.3713 5.33306 22.1708 5.33125 21.9766C5.32355 21.2753 5.32582 20.5736 5.3308 19.8718C5.3317 19.7492 5.30137 19.6831 5.17506 19.645C2.54926 18.8537 1.04713 17.0328 0.400637 14.4278C0.172465 13.5093 0.0579255 12.5748 0.0262348 11.6314C-0.0317138 9.90287 -0.0172266 8.17709 0.316883 6.47032C0.463566 5.72061 0.691738 4.99761 1.00502 4.29997C1.75654 2.6267 3.07306 1.59902 4.75629 0.976977C6.0384 0.502976 7.36579 0.241754 8.72215 0.124952C9.46507 0.0606649 10.2116 0.0402924 10.9572 0ZM5.97321 20.2268C5.96732 20.2268 5.96099 20.2268 5.9551 20.2268C5.9551 20.8606 5.94922 21.4944 5.96099 22.1278C5.9628 22.2332 6.02527 22.4071 6.09182 22.4247C6.19007 22.4506 6.33811 22.3894 6.42774 22.3184C6.57443 22.2029 6.69711 22.0553 6.8198 21.9123C7.6845 20.905 8.54513 19.894 9.41391 18.8903C9.47729 18.817 9.59726 18.7459 9.68735 18.75C11.8192 18.8537 13.919 18.6676 15.9847 18.1117C16.6901 17.922 17.3606 17.6662 17.9532 17.232C19.1194 16.3782 19.7346 15.1839 20.0063 13.8035C20.3236 12.1905 20.3938 10.5552 20.3096 8.91548C20.2544 7.83574 20.0774 6.77501 19.7369 5.74325C19.228 4.19946 18.2551 3.1161 16.7032 2.56332C15.8335 2.2532 14.9521 1.98927 14.0362 1.89012C13.0706 1.78599 12.099 1.71944 11.1279 1.68323C9.41481 1.61939 7.72842 1.80139 6.07598 2.28897C3.91468 2.92686 2.57643 4.32758 2.05036 6.51605C1.83803 7.39976 1.72531 8.29616 1.69814 9.20206C1.65378 10.6725 1.60398 12.1434 1.89779 13.5989C2.35369 15.8557 3.56065 17.4593 5.83513 18.1356C5.95918 18.1723 5.97547 18.2393 5.97502 18.3484C5.97095 18.9745 5.97321 19.6007 5.97321 20.2268Z" fill="white"/>
<path d="M4.84009 6.9847C4.85503 6.56775 4.99401 6.26216 5.20634 5.98916C5.53004 5.57356 5.92889 5.23991 6.38433 4.97959C6.83388 4.7229 7.22594 4.78311 7.54466 5.19961C8.02545 5.82664 8.4913 6.46679 8.92682 7.1255C9.28447 7.66696 9.18125 8.12783 8.68145 8.53211C8.55242 8.63624 8.42294 8.73991 8.29482 8.8454C8.05805 9.04007 7.9761 9.30491 8.07253 9.57745C8.69005 11.325 9.78066 12.6265 11.5893 13.2305C12.0452 13.3826 12.3159 13.293 12.617 12.9113C12.6962 12.8108 12.775 12.7094 12.8547 12.6089C13.177 12.2023 13.6256 12.086 14.0779 12.3318C14.8693 12.7615 15.5936 13.2907 16.26 13.896C16.4841 14.0993 16.5448 14.3673 16.4769 14.6624C16.3112 15.3854 15.2858 16.3624 14.5524 16.4706C14.3812 16.496 14.1843 16.4815 14.0231 16.4213C10.6467 15.1568 7.89371 13.1363 6.12084 9.91609C5.65454 9.06904 5.23079 8.20706 4.90573 7.29754C4.86318 7.17937 4.85276 7.04944 4.84009 6.9847Z" fill="white"/>
<path d="M16.8871 10.096C16.8871 10.2169 16.8899 10.3373 16.8867 10.4582C16.8817 10.647 16.7817 10.7588 16.5942 10.7638C16.3959 10.7688 16.3212 10.637 16.3054 10.4573C16.2665 10.0146 16.2551 9.56726 16.1813 9.13038C15.6929 6.24699 13.2228 4.78016 11.0203 4.75843C10.975 4.75798 10.9298 4.75707 10.8845 4.75707C10.6934 4.75572 10.5594 4.68192 10.5477 4.47367C10.5377 4.29122 10.6676 4.18031 10.8976 4.18574C13.4048 4.24504 15.2465 5.3601 16.3353 7.64409C16.7038 8.41644 16.8763 9.24039 16.8871 10.096Z" fill="white"/>
<path d="M14.7639 9.59983C14.7422 7.91615 13.4542 6.50773 11.7642 6.31894C11.6297 6.304 11.4943 6.29314 11.3594 6.28182C11.1539 6.26462 11.0294 6.14736 11.0489 5.97487C11.0706 5.78382 11.1974 5.69418 11.3775 5.70731C12.5868 5.79559 13.6556 6.18856 14.452 7.15467C15.0881 7.92656 15.366 8.82024 15.3506 9.81261C15.347 10.0503 15.2497 10.1725 15.0691 10.1694C14.8757 10.1662 14.7648 10.0335 14.7639 9.8031C14.7635 9.73519 14.7639 9.66774 14.7639 9.59983Z" fill="white"/>
<path d="M13.8458 9.28739C13.8503 9.51511 13.7412 9.655 13.5732 9.66542C13.4057 9.67583 13.2862 9.55269 13.2645 9.34896C13.2559 9.26657 13.2477 9.18417 13.2337 9.10268C13.0997 8.31585 12.6868 7.93692 11.8878 7.86267C11.8072 7.85498 11.694 7.85769 11.6555 7.8088C11.5849 7.71916 11.5138 7.58968 11.5251 7.48555C11.5423 7.32665 11.684 7.27006 11.847 7.27051C12.8684 7.27323 13.6538 7.95593 13.8055 8.97864C13.8218 9.09046 13.8349 9.20273 13.8458 9.28739Z" fill="white"/>
</svg>
