<svg width="56" height="18" viewBox="0 0 56 18" fill="none" xmlns="http://www.w3.org/2000/svg">
<path d="M51.7873 0.381965C52.9334 6.15008 54.0543 11.8552 55.2003 17.6485C53.878 17.6485 52.6185 17.6611 51.3465 17.6359C51.2332 17.6359 51.0695 17.4092 51.0317 17.2707C50.8428 16.5402 50.6916 15.8098 50.5279 15.0415C48.7144 15.0415 46.926 15.0289 45.1502 15.0541C45.0117 15.0541 44.7976 15.243 44.7346 15.3942C44.4953 15.9987 44.319 16.6158 44.0671 17.2203C43.9916 17.3966 43.7901 17.6233 43.6389 17.6359C42.2158 17.6611 40.7926 17.6485 39.2939 17.6485C39.3947 17.384 39.4577 17.1951 39.5332 17.0188C41.6365 11.9812 43.7649 6.9561 45.8555 1.90586C46.2837 0.860542 47.0016 0.356777 48.1224 0.369371C49.3189 0.394559 50.5153 0.381965 51.7873 0.381965ZM50.0745 11.49C49.6337 9.38677 49.1929 7.30874 48.7521 5.2433C48.7144 5.2433 48.6766 5.23071 48.6388 5.23071C47.8706 7.30874 47.1023 9.38677 46.3341 11.49C47.6187 11.49 48.8151 11.49 50.0745 11.49Z" fill="#F3F2EC"/>
<path d="M0 0.621864C0.176318 0.546299 0.340042 0.39517 0.51636 0.39517C2.93443 0.382575 5.33991 0.369981 7.75799 0.39517C8.90405 0.407764 9.60933 1.06266 9.82343 2.20873C10.4153 5.2691 11.0073 8.32947 11.5992 11.3898C11.6244 11.5536 11.6874 11.7047 11.7629 11.9944C12.4934 10.1808 13.1735 8.4806 13.8535 6.79299C14.647 4.79052 15.453 2.80065 16.2338 0.785588C16.3724 0.420358 16.5361 0.256634 16.9517 0.269228C18.2867 0.294417 19.6343 0.281822 21.0574 0.281822C20.7803 0.949312 20.541 1.51605 20.3017 2.09538C18.2111 7.04487 16.1079 11.9944 14.0425 16.9565C13.841 17.4224 13.6143 17.5736 13.1231 17.561C11.9518 17.5232 10.768 17.5232 9.59673 17.561C9.10556 17.5736 8.95443 17.3847 8.85368 16.9565C7.77058 12.6619 6.63711 8.36726 5.5792 4.07266C5.32732 3.03994 4.82355 2.34726 3.80343 2.01981C2.55661 1.60421 1.33498 1.17601 0.113347 0.760399C0.0755648 0.722617 0.0377824 0.672241 0 0.621864Z" fill="#F3F2EC"/>
<path d="M27.6698 13.1022C28.9795 13.8453 30.3019 14.2231 31.6999 14.2105C32.4429 14.2105 33.2238 14.1349 33.9039 13.8705C35.1633 13.3919 35.3018 12.1325 34.2439 11.3013C33.8157 10.9738 33.3119 10.7471 32.8459 10.4575C32.0777 9.99147 31.2591 9.58846 30.5538 9.03432C28.438 7.3593 28.1987 4.60118 29.9493 2.53574C31.2465 0.999258 32.9971 0.356957 34.924 0.117668C36.8131 -0.12162 38.6392 0.155451 40.5032 0.848128C40.2513 2.03198 39.9994 3.20323 39.7475 4.32411C38.677 4.08482 37.6695 3.83294 36.6494 3.65662C35.7804 3.50549 34.924 3.61884 34.1431 4.04704C33.1482 4.58859 33.0726 5.52055 33.9668 6.21323C34.4076 6.55327 34.924 6.81775 35.4151 7.09482C36.07 7.47264 36.7501 7.81269 37.3798 8.22829C40.1379 10.067 40.3646 13.606 37.8836 15.8351C36.7501 16.8427 35.39 17.3464 33.9164 17.5857C31.6999 17.9384 29.5211 17.7243 27.3927 17.0442C27.2416 16.9938 27.0904 16.9182 26.8889 16.8427C27.1408 15.6085 27.3927 14.412 27.6698 13.1022Z" fill="#F3F2EC"/>
<path d="M27.443 0.382191C26.2214 6.20068 25.0124 11.9058 23.8033 17.6236C22.2794 17.6236 20.8059 17.6236 19.2568 17.6236C19.5843 16.1123 19.8991 14.6388 20.214 13.1778C21.083 9.19809 21.9646 5.20575 22.7958 1.2134C22.9343 0.533321 23.1862 0.331815 23.8537 0.369597C25.0124 0.419974 26.171 0.382191 27.443 0.382191Z" fill="#F3F2EC"/>
</svg>
