<svg width="22" height="22" viewBox="0 0 22 22" fill="none" xmlns="http://www.w3.org/2000/svg">
<path d="M0 21.9998C0.506111 20.5049 0.999645 19.046 1.49361 17.5876C1.62459 17.2007 1.76337 16.8165 1.88263 16.4261C1.90995 16.3371 1.90128 16.2093 1.85531 16.1301C0.795379 14.3059 0.293171 12.3401 0.40246 10.2418C0.559888 7.23333 1.77811 4.70641 4.04021 2.69416C5.59584 1.31021 7.42209 0.459434 9.48383 0.134962C13.9009 -0.560459 18.2707 1.46943 20.5445 5.35062C21.7463 7.40159 22.1895 9.61954 21.9267 11.97C21.4206 16.4954 18.0097 20.2312 13.4863 21.1998C10.9449 21.7442 8.50501 21.4142 6.19129 20.2269C6.03126 20.1447 5.89639 20.1296 5.72378 20.1851C3.88495 20.7755 2.04309 21.3582 0.202531 21.9426C0.148754 21.959 0.0936761 21.9732 0 21.9998ZM2.68278 19.3795C2.81115 19.3408 2.88661 19.3189 2.9612 19.2952C3.97082 18.975 4.98131 18.6566 5.98963 18.3317C6.12364 18.2886 6.22599 18.2951 6.35263 18.3704C9.14166 20.0328 12.0408 20.2333 15.0099 18.9221C18.985 17.1663 21.1344 12.6293 20.0103 8.45807C18.7235 3.6835 13.9859 0.837268 9.12821 1.92085C5.01254 2.83919 1.99322 6.66615 2.08516 10.8507C2.12549 12.6835 2.66109 14.3601 3.71625 15.8676C3.79692 15.9825 3.80386 16.0776 3.75962 16.2032C3.55839 16.7777 3.3641 17.3548 3.16894 17.931C3.01108 18.3975 2.85539 18.8644 2.68278 19.3795Z" fill="white"/>
<path d="M5.90381 8.31536C5.9333 7.50418 6.21042 6.8135 6.77812 6.23297C7.02489 5.98037 7.32023 5.85987 7.66544 5.84696C8.44521 5.81813 8.45692 5.82889 8.75226 6.5398C8.99122 7.11559 9.23322 7.69009 9.47825 8.26372C9.57106 8.48104 9.56325 8.68588 9.41276 8.87006C9.23061 9.09212 9.03632 9.3047 8.84941 9.52288C8.58746 9.82799 8.57835 9.93041 8.78695 10.2674C9.61963 11.6139 10.7372 12.6346 12.2252 13.2341C12.655 13.4071 12.8402 13.3641 13.1264 12.9996C13.3129 12.7624 13.4859 12.5146 13.6664 12.2727C13.8737 11.9943 14.0688 11.9229 14.3776 12.0649C15.0845 12.3902 15.7823 12.734 16.4849 13.0693C16.644 13.1454 16.6944 13.275 16.6861 13.4394C16.6284 14.5436 16.2988 15.1641 14.9522 15.6435C14.3308 15.8647 13.7162 15.7494 13.1008 15.5889C10.5521 14.9232 8.65425 13.3804 7.1615 11.2804C6.70179 10.6336 6.2603 9.97904 6.06254 9.20013C5.98794 8.91009 5.95542 8.61057 5.90381 8.31536Z" fill="white"/>
</svg>
