<svg width="20" height="20" viewBox="0 0 20 20" fill="none" xmlns="http://www.w3.org/2000/svg">
<path d="M1.71589 2.49642C1.72506 2.43631 1.73181 2.40753 1.73439 2.39756C1.75663 2.35056 1.83273 2.24015 1.97541 2.11739C2.10065 2.00963 2.2211 1.94075 2.30155 1.90891C2.32445 1.90617 2.38968 1.89841 2.5221 1.89076C2.74811 1.8777 3.10353 1.86718 3.67004 1.85919C4.79909 1.84326 6.70799 1.83798 9.96719 1.83557C10.3783 1.83526 10.768 1.83491 11.1375 1.83458C14.614 1.83146 16.3019 1.82995 17.1952 1.88138C17.6598 1.90813 17.8035 1.94605 17.8377 1.95765C17.8386 1.95831 17.8396 1.95905 17.8407 1.95988C17.8682 1.98058 17.88 1.99063 17.9006 2.0082C17.9228 2.02718 17.9552 2.05492 18.0288 2.11429C18.125 2.19189 18.1804 2.23591 18.2104 2.25871C18.2271 2.31731 18.2603 2.45747 18.2956 2.74731C18.3989 3.59693 18.4761 5.22794 18.6362 8.61339C18.656 9.03168 18.6771 9.47677 18.6996 9.95047C18.8681 13.4922 18.9555 15.3802 18.9867 16.4267C19.0024 16.9543 19.0028 17.2396 18.9952 17.4058C18.9919 17.4775 18.9876 17.5126 18.9857 17.5261C18.9214 17.7053 18.7249 17.9394 18.4372 18.0708L18.2274 18.1666L10.0044 18.1659L1.76803 18.1652L1.5592 18.0761L1.1668 18.9959L1.55919 18.0761C1.31124 17.9703 1.08225 17.7146 1.01436 17.5259C1.01237 17.5125 1.00814 17.4773 1.00485 17.4058C0.997204 17.2396 0.997579 16.9544 1.01327 16.4269C1.04441 15.3806 1.13176 13.4928 1.30006 9.95115C1.47094 6.35552 1.56255 4.47018 1.63114 3.43945C1.66577 2.91903 1.69263 2.64888 1.71589 2.49642ZM1.01174 17.5185L0.0650423 17.8406L1.01177 17.5186C1.01176 17.5185 1.01175 17.5185 1.01174 17.5185Z" stroke="#F3F2EC" stroke-width="2"/>
<path d="M6.66699 5.83325V8.33325C6.66699 10.1742 8.15938 11.6666 10.0003 11.6666V11.6666C11.8413 11.6666 13.3337 10.1742 13.3337 8.33325V5.83325" stroke="#F3F2EC" stroke-width="2" stroke-linecap="round"/>
</svg>
