<svg width="21" height="21" viewBox="0 0 21 21" fill="none" xmlns="http://www.w3.org/2000/svg">
<path fill-rule="evenodd" clip-rule="evenodd" d="M5.08419 0.222256C3.58857 0.472527 2.29289 1.25564 1.37254 2.46567C0.781251 3.24303 0.402961 4.04752 0.181903 4.99751C-0.22803 6.75936 0.0595813 8.56552 0.99734 10.1186C1.26593 10.5634 1.68508 11.0364 5.59425 15.306C8.51163 18.4923 9.95416 20.0349 10.0776 20.1001C10.3171 20.2267 10.6826 20.2267 10.9221 20.1001C11.0455 20.0349 12.4881 18.4923 15.4054 15.306C19.3146 11.0364 19.7338 10.5634 20.0024 10.1186C20.9381 8.56879 21.2276 6.75883 20.8199 5.00649C20.4077 3.23507 19.3216 1.73403 17.8554 0.909294C16.9667 0.409386 16.3576 0.239188 15.3337 0.204543C14.4886 0.175998 14.0506 0.238163 13.3319 0.488727C12.3559 0.828977 11.325 1.56832 10.7236 2.35925C10.6129 2.50495 10.5122 2.62416 10.4998 2.62416C10.4875 2.62416 10.3868 2.50456 10.2761 2.35832C9.49477 1.32698 8.16404 0.514247 6.84665 0.263781C6.49401 0.196736 5.3919 0.170777 5.08419 0.222256ZM6.73771 2.36432C7.97982 2.67232 9.03511 3.64183 9.51894 4.91939C9.69542 5.38543 9.8288 5.5792 10.0661 5.71422C10.4196 5.91545 10.9321 5.81937 11.201 5.50147C11.2542 5.43847 11.3757 5.18933 11.4709 4.94779C12.1326 3.26791 13.4939 2.27298 15.1322 2.27171C16.2074 2.27093 17.0956 2.65656 17.8563 3.45451C18.3918 4.01638 18.7236 4.60886 18.9439 5.39685C19.0513 5.78077 19.0639 5.90335 19.0639 6.55803C19.0639 7.21272 19.0513 7.33529 18.9439 7.71922C18.8104 8.19683 18.632 8.60763 18.3675 9.0466C18.2518 9.23885 16.8746 10.7673 14.3567 13.498C12.2478 15.7853 10.508 17.6517 10.4907 17.6456C10.4079 17.6165 3.0411 9.6074 2.81387 9.29945C2.48745 8.85707 2.2155 8.29149 2.05778 7.72673C1.94817 7.33432 1.93577 7.2156 1.93577 6.55803C1.93577 5.90335 1.94844 5.78077 2.05576 5.39685C2.68107 3.16032 4.69283 1.85729 6.73771 2.36432Z" fill="#131313"/>
</svg>
